<svg xmlns="http://www.w3.org/2000/svg" x="0px" y="0px"
width="24" height="24"
viewBox="0 0 172 172"
style=" fill:#000000;"><g fill="none" fill-rule="nonzero" stroke="none" stroke-width="1" stroke-linecap="butt" stroke-linejoin="miter" stroke-miterlimit="10" stroke-dasharray="" stroke-dashoffset="0" font-family="none" font-weight="none" font-size="none" text-anchor="none" style="mix-blend-mode: normal"><path d="M0,172v-172h172v172z" fill="none"></path><g fill="#8b9da7"><path d="M71.66667,14.33333l-7.16667,7.16667h-35.83333v14.33333h7.16667v107.5c0,7.83362 6.49972,14.33333 14.33333,14.33333h71.66667c7.83362,0 14.33333,-6.49972 14.33333,-14.33333v-107.5h7.16667v-14.33333h-14.33333h-21.5l-7.16667,-7.16667zM50.16667,35.83333h71.66667v107.5h-71.66667zM69.56706,59.43294l-10.13411,10.13411l16.43295,16.43294l-16.43295,16.43294l10.13411,10.13411l16.43294,-16.43294l16.43294,16.43294l10.13411,-10.13411l-16.43294,-16.43294l16.43294,-16.43294l-10.13411,-10.13411l-16.43294,16.43295z"></path></g></g></svg>