<svg xmlns="http://www.w3.org/2000/svg" x="0px" y="0px"
width="50" height="50"
viewBox="0 0 226 226"
style=" fill:#000000;"><g fill="none" fill-rule="nonzero" stroke="none" stroke-width="1" stroke-linecap="butt" stroke-linejoin="miter" stroke-miterlimit="10" stroke-dasharray="" stroke-dashoffset="0" font-family="none" font-weight="none" font-size="none" text-anchor="none" style="mix-blend-mode: normal"><path d="M0,226v-226h226v226z" fill="none"></path><g fill="#0082d4"><path d="M194.925,9.04c-5.63234,0 -11.24703,2.20703 -15.5375,6.4975l-3.6725,3.6725l31.075,31.075c-0.01766,0.01766 3.6725,-3.6725 3.6725,-3.6725c8.59859,-8.59859 8.58094,-22.49406 0,-31.075c-4.30812,-4.29047 -9.90516,-6.4975 -15.5375,-6.4975zM168.79375,27.26125c-1.02406,0.14125 -1.9775,0.65328 -2.68375,1.4125l-146.6175,146.75875c-0.58266,0.52969 -1.02406,1.21828 -1.27125,1.9775l-9.04,33.9c-0.40609,1.55375 0.05297,3.19578 1.18297,4.32578c1.13,1.13 2.77203,1.58906 4.32578,1.18297l33.9,-9.04c0.75922,-0.24719 1.44781,-0.68859 1.9775,-1.27125l146.75875,-146.6175c1.80094,-1.74797 1.81859,-4.62594 0.07063,-6.42687c-1.74797,-1.80094 -4.62594,-1.81859 -6.42688,-0.07062l-145.91125,145.91125l-18.3625,-18.3625l145.91125,-145.91125c1.35953,-1.30656 1.76563,-3.33703 1.00641,-5.06734c-0.75922,-1.73031 -2.50719,-2.80734 -4.39641,-2.70141c-0.14125,0 -0.2825,0 -0.42375,0z"></path></g></g></svg>