<svg xmlns="http://www.w3.org/2000/svg" x="0px" y="0px"
width="64" height="64"
viewBox="0 0 172 172"
style=" fill:#000000;"><g fill="none" fill-rule="nonzero" stroke="none" stroke-width="1" stroke-linecap="butt" stroke-linejoin="miter" stroke-miterlimit="10" stroke-dasharray="" stroke-dashoffset="0" font-family="none" font-weight="none" font-size="none" text-anchor="none" style="mix-blend-mode: normal"><path d="M0,172v-172h172v172z" fill="none"></path><g><path d="M119.99688,155.875h-67.99375c-7.39062,0 -13.4375,-6.04687 -13.4375,-13.4375v-96.34688c0,-7.39062 6.04688,-13.4375 13.4375,-13.4375h67.85938c7.39063,0 13.4375,6.04688 13.4375,13.4375v96.34688c0.13437,7.39063 -5.9125,13.4375 -13.30313,13.4375z" fill="#ce938e"></path><path d="M49.18125,43.40313h73.6375v101.72188h-73.6375v-101.72188" fill="#ffffff"></path><path d="M113.27813,66.24688h-19.21563v8.0625h19.21563v-8.0625M113.27813,93.12188h-19.21563v8.0625h19.21563v-8.0625M113.27813,119.99688h-19.21563v8.0625h19.21563v-8.0625" fill="#e6e7e7"></path><path d="M119.99688,159.90625h-67.99375c-9.675,0 -17.46875,-7.79375 -17.46875,-17.46875v-96.34688c0,-9.675 7.79375,-17.46875 17.46875,-17.46875h67.85938c9.675,0 17.46875,7.79375 17.46875,17.46875v96.34688c0.13437,9.675 -7.79375,17.46875 -17.33438,17.46875zM52.00313,36.68438c-5.24063,0 -9.40625,4.16562 -9.40625,9.40625v96.34688c0,5.24062 4.16562,9.40625 9.40625,9.40625h67.85938c5.24063,0 9.40625,-4.16563 9.40625,-9.40625v-96.34688c0,-5.24062 -4.16563,-9.40625 -9.40625,-9.40625z" fill="#454b54"></path><path d="M67.45625,80.49062v0c-1.075,0 -2.01562,-0.5375 -2.55312,-1.34375l-7.12188,-10.34687l4.97188,-3.62812l4.8375,7.12188l11.69062,-14.5125l4.70313,4.03125l-14.10937,17.60313c-0.67187,0.67188 -1.47813,1.075 -2.41875,1.075zM67.45625,107.36563v0c-1.075,0 -2.01562,-0.5375 -2.55312,-1.34375l-7.12188,-10.34688l4.97188,-3.62812l4.8375,7.12188l11.69062,-14.5125l4.70313,4.03125l-14.10937,17.60312c-0.67187,0.67188 -1.47813,1.075 -2.41875,1.075z" fill="#8ccfb9"></path><path d="M87.20938,36.68438c-6.71875,0 -12.22813,-5.50937 -12.22813,-12.3625c0,-6.85313 5.50938,-12.3625 12.22813,-12.3625c6.71875,0 12.22812,5.50937 12.22812,12.3625c0,6.85313 -5.50937,12.3625 -12.22812,12.3625zM87.20938,20.15625c-2.28438,0 -4.16563,1.88125 -4.16563,4.3c0,2.28437 1.88125,4.3 4.16563,4.3c2.28437,0 4.16562,-1.88125 4.16562,-4.3c0,-2.41875 -1.88125,-4.3 -4.16562,-4.3z" fill="#454b54"></path><path d="M70.00938,115.15938v0c-5.24063,0 -9.40625,4.16563 -9.40625,9.40625v0c0,5.24063 4.16562,9.40625 9.40625,9.40625v0c5.24062,0 9.40625,-4.16563 9.40625,-9.40625v0c0,-5.24062 -4.16563,-9.40625 -9.40625,-9.40625z" fill="#f8e390"></path></g></g></svg>